<svg xmlns="http://www.w3.org/2000/svg" width="1200" height="630" viewBox="0 0 1200 630" role="img" aria-label="Caio tech job search">
  <rect width="1200" height="630" fill="#F6F2E9"/>
  <circle cx="980" cy="90" r="230" fill="#F4E5CB"/>
  <circle cx="1040" cy="540" r="220" fill="#E2EBE3"/>
  <g transform="translate(86 78)">
    <rect width="88" height="88" rx="22" fill="#EFEADE" stroke="rgba(22,26,23,0.12)" stroke-width="2"/>
    <line x1="21" y1="59" x2="67" y2="59" stroke="#161A17" stroke-width="5" stroke-linecap="round"/>
    <path d="M25 59a19 19 0 0 1 38 0Z" fill="#0E5C49"/>
  </g>
  <text x="196" y="138" fill="#161A17" font-family="Georgia, serif" font-size="72" font-weight="400">caio</text>
  <text x="86" y="292" fill="#161A17" font-family="Georgia, serif" font-size="82" font-weight="400">Cleaner tech job search.</text>
  <text x="90" y="362" fill="#2E332E" font-family="Inter, Arial, sans-serif" font-size="30">Search public roles with salary, location, company, and source signals.</text>
  <g transform="translate(90 444)">
    <rect width="194" height="52" rx="14" fill="#0E5C49"/>
    <text x="24" y="35" fill="#FBF9F3" font-family="Inter, Arial, sans-serif" font-size="20" font-weight="700">caio-jobs.com</text>
  </g>
  <g transform="translate(706 166)">
    <rect width="360" height="298" rx="22" fill="#FBF9F3" stroke="rgba(22,26,23,0.10)" stroke-width="2"/>
    <text x="32" y="58" fill="#6A6E66" font-family="Inter, Arial, sans-serif" font-size="14" font-weight="700">LIVE INDEX</text>
    <text x="32" y="128" fill="#161A17" font-family="Georgia, serif" font-size="54">374k+ roles</text>
    <line x1="32" y1="164" x2="328" y2="164" stroke="rgba(22,26,23,0.10)" stroke-width="2"/>
    <text x="32" y="212" fill="#2E332E" font-family="Inter, Arial, sans-serif" font-size="22">Remote</text>
    <text x="32" y="252" fill="#2E332E" font-family="Inter, Arial, sans-serif" font-size="22">Salary listed</text>
    <text x="32" y="292" fill="#2E332E" font-family="Inter, Arial, sans-serif" font-size="22">Source links</text>
  </g>
</svg>
